PathFileType	4	(X/Y/Z)	C:/Users/beibeiliu/ov580/test_trc/User3\sequence.18_training_dense_left.trc
DataRate	CameraRate	NumFrames	NumMarkers	Units	OrigDataRate	OrigDataStartFrame	OrigNumFrames
120	120	19	19	mm	120	33	261
Frame#	Time	ThumbCMC			ThumbMCP			ThumbIP			ThumbTip			IndexMCP			IndexPIP			IndexTip			MiddleMCP			MiddlePIP			MiddleTip			RingMCP			RingPIP			RingTip			PinkyMCP			PinkyPIP			PinkyTip			BackHand1			BackHand2			BackHand3	
		X0	Y0	Z0	X1	Y1	Z1	X2	Y2	Z2	X3	Y3	Z3	X4	Y4	Z4	X5	Y5	Z5	X6	Y6	Z6	X7	Y7	Z7	X8	Y8	Z8	X9	Y9	Z9	X10	Y10	Z10	X11	Y11	Z11	X12	Y12	Z12	X13	Y13	Z13	X14	Y14	Z14	X15	Y15	Z15	X16	Y16	Z16	X17	Y17	Z17	X18	Y18	Z18	
32	0.266667	-156.848	-36.4223	20.1665	-138.839	-33.9683	-0.377615	-122.059	-30.3712	-24.3152	-113.812	-29.2683	-45.0498	-164.575	-36.3789	-52.6809	-164.136	-70.0787	-50.1913	-167.852	-60.5907	-18.1251	-188.556	-43.4387	-54.7028	-183.394	-75.4567	-46.868	-182.358	-57.6635	-10.7893	-204.652	-45.6886	-51.4348	-201.873	-75.5814	-46.3774	-195.497	-70.6091	-13.1943	-229.913	-36.6827	-44.2748	-226.889	-44.308	-65.8863	-227.754	-56.7273	-87.803	-213.817	-12.3713	-3.96856	-212.642	-18.8459	29.1806	-183.626	-14.7211	12.8332	
33	0.275	-155.199	-33.5174	21.2626	-138.949	-30.1829	-2.13716	-123.974	-25.2003	-29.1029	-115.691	-25.8568	-44.801	-170.176	-37.3082	-53.3943	-167.165	-69.8196	-50.4494	-169.142	-59.1019	-18.2172	-187.15	-45.5337	-56.1435	-183.239	-74.7576	-46.3292	-183.35	-58.9002	-11.056	-204.746	-48.111	-52.5004	-201.266	-75.421	-45.5601	-195.521	-68.8065	-11.5141	-231.295	-37.2305	-48.2339	-228.578	-46.4046	-66.7479	-232.921	-56.9656	-86.5789	-212.02	-11.9061	-4.77341	-214.402	-16.3534	24.4395	-184.284	-10.9207	10.8666	
34	0.283333	-159.563	-29.1245	20.1976	-141.128	-26.0378	-1.9737	-129.091	-21.0482	-26.547	-119.95	-18.6429	-47.6071	-169.428	-36.08	-53.2805	-164.975	-69.3976	-45.5141	-168.682	-59.8256	-17.6565	-187.051	-47.8384	-56.9464	-181.021	-75.7958	-41.5971	-184.108	-53.4317	-8.56946	-207.881	-50.9102	-51.8568	-194.819	-79.1802	-42.1117	-192.867	-68.8155	-9.1505	-232.176	-42.5445	-42.9123	-229.583	-52.7103	-67.9897	-227.19	-65.3435	-87.2095	-216.078	-14.1234	-6.09658	-218.851	-18.0079	27.095	-189.52	-9.951	8.98449	
35	0.291667	-162.616	-20.2484	19.6942	-149.449	-14.5067	-7.65241	-138.515	-10.5273	-30.132	-127.558	-8.13359	-50.9854	-169.69	-37.7969	-54.9493	-154.831	-65.9879	-41.0488	-163.567	-54.4817	-14.8897	-189.018	-54.9369	-55.5169	-171.908	-75.6038	-37.6548	-179.41	-53.4578	-6.16599	-205.439	-61.0042	-49.6875	-187.209	-84.1492	-35.5078	-185.873	-70.7126	-7.00519	-230.491	-56.8788	-47.8603	-225.156	-69.6036	-66.5967	-221.992	-84.6326	-80.4573	-225.499	-21.7998	-10.8073	-227.009	-21.4967	22.5577	-196.597	-10.6751	7.2866	
36	0.3	-168.298	-12.3466	16.5517	-156.52	-8.65714	-10.1776	-144.459	-3.9198	-32.8047	-129.68	3.13449	-51.7763	-172.915	-42.6972	-53.5412	-153.995	-65.2082	-41.9829	-163.733	-52.3444	-12.0245	-185.793	-56.7843	-53.3659	-163.956	-75.1704	-37.0629	-178.953	-56.8548	-4.91002	-201.37	-67.0668	-46.181	-180.263	-85.7634	-34.1453	-180.111	-66.8853	-1.94611	-223.224	-68.9083	-45.6012	-215.669	-81.8052	-61.5309	-207.678	-101.48	-76.1152	-229.722	-32.6593	-9.09889	-230.415	-26.7809	19.2153	-203.449	-12.0248	3.34989	
37	0.308333	-173.946	-9.6849	12.7897	-160.817	-4.48704	-13.1615	-147.931	0.185761	-33.7453	-134.469	7.74243	-51.8024	-168.132	-46.5364	-53.1631	-148.104	-61.9695	-35.4175	-160.036	-45.0003	-9.62087	-183.928	-59.9991	-50.419	-160.083	-75.2841	-32.6893	-176.116	-56.6545	-3.47017	-196.116	-73.0738	-43.3577	-169.432	-84.7245	-26.6551	-177.781	-67.6596	3.55605	-220.678	-76.6458	-38.4933	-209.192	-92.4486	-55.6176	-194.434	-104.552	-68.0707	-226.501	-35.2227	-8.76198	-234.208	-33.1214	19.5786	-205.051	-10.5698	-1.17129	
38	0.316667	-178.485	-7.63133	13.0444	-161.268	-0.0290004	-10.6689	-149.397	5.63845	-35.5801	-138.903	6.43643	-51.6072	-167.45	-41.0948	-51.1835	-141.788	-55.015	-32.7959	-159.602	-44.0172	-7.13305	-176.258	-56.9891	-49.804	-153.868	-72.0836	-29.0565	-174.706	-52.3841	-0.180757	-186.633	-72.4788	-41.8613	-163.535	-84.0146	-24.2182	-169.345	-67.1859	4.48813	-210.74	-80.512	-38.6074	-199.403	-97.0549	-51.6426	-177.204	-113.446	-60.7797	-226.724	-42.3807	-8.90668	-230.67	-32.1888	17.7606	-208.196	-10.2491	-1.4776	
39	0.325	-181.696	-5.31526	12.7765	-167.035	-1.34524	-9.52784	-153.394	6.68494	-38.8875	-141.782	12.7955	-58.1321	-161.199	-42.6898	-49.6285	-139.001	-51.3543	-32.6193	-158.052	-37.1123	-5.26766	-171.085	-62.1491	-47.2024	-148.598	-67.7509	-24.3195	-167.798	-51.9288	1.49148	-180.935	-71.4782	-39.1531	-157.471	-80.4289	-19.3498	-167.504	-62.7678	9.28689	-202.651	-84.7816	-37.33	-186.362	-98.444	-48.1782	-161.964	-110.307	-50.9828	-224.829	-42.2711	-10.5174	-231.383	-37.6474	18.2081	-209.446	-10.9396	-0.196562	
40	0.333333	-181.922	2.67381	9.47528	-169.882	4.62734	-14.1004	-157.816	12.5191	-39.7845	-146.173	18.959	-57.2906	-157.855	-40.2676	-48.6289	-135.676	-43.4137	-27.386	-155.813	-34.6249	-3.48881	-164.886	-58.5406	-44.3894	-141.429	-61.2019	-22.8014	-163.277	-40.6231	3.80721	-173.918	-73.0453	-36.1827	-149.03	-75.356	-17.4812	-162.774	-54.2754	8.77302	-194.325	-83.5421	-32.9504	-176.715	-99.0853	-42.8845	-153.515	-106.629	-50.8606	-221.915	-50.7395	-12.7334	-229.805	-39.6952	17.4691	-213.079	-14.7934	-2.52	
41	0.341667	-187.302	6.05466	8.57808	-173.653	7.84642	-11.7207	-161.433	17.3846	-43.274	-152.568	20.5037	-60.957	-156.615	-32.479	-47.1265	-131.58	-35.3187	-27.8429	-152.601	-28.4098	-2.47369	-157.726	-55.2207	-41.7493	-134.899	-51.5176	-18.767	-161.293	-38.81	7.99869	-166.892	-71.2399	-33.8046	-141.718	-65.9629	-15.4113	-158.185	-47.4354	7.85477	-183.63	-88.1482	-29.8409	-163.827	-96.4992	-39.5392	-139.714	-106.118	-46.6504	-216.648	-51.4535	-11.0809	-225.715	-40.4719	16.6712	-212.625	-14.2751	-2.47367	
42	0.35	-190.232	4.46664	5.11633	-179.053	14.0099	-16.6381	-167.523	14.5599	-45.3748	-158.166	20.8996	-61.8435	-154.212	-26.4482	-47.844	-130.205	-25.5325	-23.3188	-155.62	-18.442	-1.37678	-150.754	-49.7798	-39.0778	-130.8	-43.8206	-15.1317	-160.211	-27.3495	9.63898	-158.81	-66.7595	-30.1505	-136.947	-60.4767	-7.99496	-157.219	-41.2488	9.54814	-172.521	-85.8727	-25.7447	-152.357	-91.4095	-35.9802	-130.723	-96.8113	-43.8875	-212.52	-53.0747	-8.171	-223.076	-44.656	18.7304	-213.199	-18.0886	-3.31164	
43	0.358333	-196.245	6.54133	3.51861	-184.437	9.99302	-19.7266	-174.458	17.2464	-44.5596	-164.049	22.9721	-67.8276	-151.547	-28.8719	-45.7301	-128.168	-17.0075	-26.8879	-150.049	-13.0064	-0.860486	-150.372	-47.632	-36.8548	-127.531	-31.7496	-13.6795	-155.917	-24.1422	10.0805	-149.106	-61.3488	-28.0361	-130.684	-51.8266	-8.45776	-156.916	-37.9436	12.3276	-162.711	-80.2633	-24.7502	-143.322	-86.2585	-31.4353	-122.912	-88.9537	-38.5852	-206.62	-56.1327	-9.85913	-221.016	-51.0036	19.9781	-214.256	-20.0358	-4.76272	
44	0.366667	-201.57	2.87772	4.22889	-190.135	12.8014	-22.9971	-180.301	17.4206	-53.2496	-170.115	18.8362	-69.4224	-153.591	-23.3564	-46.3184	-129.112	-12.1019	-28.0263	-152.828	-8.94592	-0.968517	-149.171	-41.5167	-37.4198	-126.399	-28.0616	-16.6558	-156.276	-17.4376	10.0092	-143.562	-57.8235	-24.8566	-127.483	-44.0104	-6.55043	-156.328	-32.9543	12.7501	-159.094	-76.5069	-17.6289	-133.304	-80.0225	-28.2042	-110.849	-75.9635	-36.3737	-202.832	-58.3907	-5.51581	-218.454	-49.0764	17.974	-215.02	-24.3561	-9.77797	
45	0.375	-207.005	1.70307	-1.26075	-195.932	8.35845	-28.1523	-185.49	12.3259	-51.2009	-178.157	18.187	-69.1578	-153.927	-20.4099	-47.4053	-133.838	-3.2071	-27.7222	-155.894	-2.10315	-3.32476	-144.386	-36.6451	-36.6016	-128.198	-19.8113	-12.4593	-157.178	-13.0923	9.67045	-143.763	-50.4388	-25.8706	-127.14	-34.1856	-6.78957	-159.048	-26.9439	11.2647	-149.433	-72.899	-17.5862	-128.738	-73.5133	-23.8793	-109.091	-69.3364	-32.7875	-198.496	-63.5617	-1.95089	-218.852	-52.9067	19.6615	-216.206	-29.4833	-7.8015	
46	0.383333	-214.575	-2.88775	-7.65016	-206.568	6.17787	-31.6605	-195.633	8.12112	-56.6021	-184.309	10.2107	-77.56	-157.259	-18.6306	-49.2344	-137.112	0.731594	-31.823	-158.64	-0.554717	-4.09951	-145.192	-31.1218	-38.3079	-132.324	-8.08515	-14.5817	-161.542	-9.10978	8.23108	-140.29	-49.7593	-22.038	-128.285	-24.2838	-7.08917	-157.449	-23.0553	11.9664	-144.383	-68.15	-16.1562	-129.593	-65.437	-22.982	-107.233	-61.031	-31.3007	-195.132	-62.8754	-5.05958	-214.782	-57.1042	21.0725	-216.841	-34.0457	-10.2285	
47	0.391667	-220.996	-5.8635	-9.24255	-210.49	-2.22633	-33.1851	-205.301	3.60002	-64.4574	-198.219	9.119	-81.5566	-158.92	-17.185	-51.8163	-146.291	5.02767	-36.6932	-169.433	4.34901	-9.80851	-149.692	-31.8903	-39.0427	-136.165	-6.63292	-18.2159	-169.008	-6.72252	4.90969	-139.064	-42.8985	-24.75	-132.217	-19.3996	-10.4927	-162.361	-19.6489	8.31532	-146.689	-63.6321	-14.8496	-125.787	-61.104	-24.5974	-105.423	-55.7961	-36.3507	-193.911	-63.5815	-1.01854	-213.69	-60.1331	16.8696	-219.617	-39.983	-11.7854	
48	0.4	-227.846	-11.8641	-7.71027	-218.942	-7.78038	-34.4644	-215.83	-3.7241	-66.5924	-205.441	-2.59125	-85.437	-167.518	-21.4108	-55.7184	-153.668	3.31293	-39.0258	-176.969	0.579059	-14.1812	-154.047	-33.4163	-41.0822	-146.478	-2.85819	-24.6418	-178.393	-8.61582	-0.431638	-148.51	-43.0393	-29.1054	-136.812	-18.9946	-11.4902	-169.732	-18.886	0.382766	-145.031	-64.7651	-18.1083	-127.835	-59.6745	-31.1207	-112.275	-56.4134	-40.8922	-194.663	-68.32	-0.384193	-211.429	-63.6262	18.8159	-221.102	-47.7226	-7.95684	
49	0.408333	-232.015	-15.2333	-13.7538	-224.376	-13.9082	-36.0378	-221.034	-12.2529	-65.93	-215.889	-10.0412	-88.621	-172.807	-25.0167	-58.9236	-164.019	1.09942	-42.7803	-185.953	-3.43863	-20.6899	-159.726	-35.4818	-46.7821	-151.438	-8.19377	-30.1091	-180.742	-15.9715	-2.02276	-150.342	-46.701	-33.0879	-143.723	-19.1224	-19.1538	-170.939	-21.9626	-0.018551	-155.789	-65.338	-18.1467	-137.039	-61.8101	-33.8589	-115.01	-61.4342	-47.219	-197.305	-71.5858	-3.94364	-215.522	-62.8523	19.4988	-225.173	-50.0869	-10.0751	
50	0.416667	-235.998	-17.0171	-9.56275	-229.122	-18.6529	-38.6778	-225.189	-18.8023	-66.0338	-222.838	-16.8146	-89.4258	-185.233	-32.931	-61.5569	-167.583	-6.91688	-46.6333	-191.114	-8.22064	-24.6323	-166.618	-42.5457	-49.2955	-156.557	-13.8703	-35.5063	-182.488	-18.6233	-7.9976	-158.677	-53.541	-36.9143	-147.157	-25.6963	-23.2163	-176.609	-27.1191	-5.20112	-156.253	-71.12	-23.0769	-139.867	-70.6681	-34.5652	-125.199	-67.0571	-50.8055	-202.547	-73.9608	-1.44844	-216.873	-68.5051	21.8112	-229.357	-54.5292	-9.00342	
